<svg width="32" height="38" viewBox="0 0 32 38" fill="none" xmlns="http://www.w3.org/2000/svg">
<path d="M24.3282 15.4334C24.3282 16.7431 25.3727 17.8087 26.6565 17.8087C27.9404 17.8087 28.9849 16.7431 28.9849 15.4334C28.9849 14.1236 27.9404 13.058 26.6565 13.058C25.3727 13.0564 24.3282 14.122 24.3282 15.4334ZM26.6565 13.5813C27.6573 13.5813 28.472 14.4124 28.472 15.4334C28.472 16.4543 27.6573 17.2839 26.6565 17.2839C25.6558 17.2839 24.8411 16.4527 24.8411 15.4334C24.8411 14.4124 25.6558 13.5813 26.6565 13.5813ZM19.2352 6.58282C19.2758 6.57963 23.257 6.24303 24.9349 10.1642C24.9771 10.2631 25.0709 10.3221 25.171 10.3221C25.2054 10.3221 25.2398 10.3157 25.2742 10.2998C25.404 10.2424 25.4634 10.0876 25.4071 9.95521C24.5393 7.92763 23.0991 6.94654 21.8247 6.47594C22.827 6.57803 23.9935 6.86997 25.0756 7.5655C25.196 7.64208 25.354 7.60538 25.4306 7.48414C25.5057 7.36131 25.4697 7.20019 25.3508 7.12202C22.5377 5.31299 19.293 6.03564 19.157 6.06755C19.0256 6.09786 18.9381 6.22867 18.96 6.36427C18.9787 6.49987 19.0991 6.59558 19.2352 6.58282ZM21.5964 13.3946C21.6089 13.3962 21.6214 13.3978 21.6355 13.3978C21.7606 13.3978 21.87 13.3037 21.8888 13.1745C22.5268 8.81779 19.4385 7.09171 19.4072 7.07416C19.2915 7.01035 19.1492 7.04864 19.0741 7.15871C19.0006 7.26878 19.0194 7.41874 19.1195 7.50648C19.1335 7.51924 20.4971 8.7476 20.1609 11.4245C20.1437 11.568 20.2422 11.6988 20.3829 11.718C20.5237 11.7371 20.6519 11.635 20.6707 11.4915C20.8145 10.3397 20.6754 9.43037 20.4455 8.746C21.0913 9.62978 21.6808 11.04 21.379 13.0979C21.3587 13.2399 21.4557 13.3723 21.5964 13.3946ZM13.29 7.64527C13.2243 7.77289 13.2712 7.93242 13.3979 7.99942C13.437 8.02015 13.4776 8.02973 13.5183 8.02973C13.6105 8.02973 13.6997 7.97868 13.7466 7.88934C14.1625 7.08692 14.899 6.5908 15.9342 6.41691C16.7332 6.28291 17.4166 6.39936 17.4228 6.40096C17.5448 6.4217 17.6621 6.3531 17.7059 6.23824C17.7497 6.12179 17.709 5.99098 17.6058 5.92238C17.5698 5.89845 16.7114 5.3417 15.4416 5.16622C14.2673 5.00351 12.5065 5.15506 10.7943 6.78861C10.6911 6.88752 10.6848 7.05342 10.7818 7.15871C10.8787 7.264 11.0413 7.27038 11.1446 7.17147C13.0507 5.35127 14.9944 5.49325 16.1813 5.85538C16.0781 5.86654 15.9733 5.87931 15.8654 5.89685C14.6707 6.09626 13.781 6.69927 13.29 7.64527ZM31.4071 21.5863H21.3165C21.157 20.283 21.4431 18.9541 22.1765 17.7959C22.1765 17.7944 22.1781 17.7944 22.1781 17.7928C22.1781 17.7912 22.1796 17.7912 22.1796 17.7896C22.2094 17.7449 22.2234 17.7194 22.2234 17.7194C22.2688 17.638 22.2688 17.5375 22.2219 17.4578C22.1765 17.3764 22.0921 17.3269 21.9998 17.3269C18.9522 17.3269 16.3705 18.6941 14.3236 21.3885C14.272 21.4555 14.2188 21.5209 14.1672 21.5863H13.77C13.77 21.5831 13.7716 21.5815 13.7731 21.5783C13.781 21.5081 14.5894 14.5368 18.2328 7.65962C18.3001 7.532 18.2532 7.37248 18.1296 7.30388C18.0045 7.23528 17.8482 7.28155 17.7809 7.40917C14.0875 14.3805 13.2712 21.4491 13.2634 21.5193C13.2603 21.5416 13.2618 21.564 13.2649 21.5863H11.537C11.1508 8.77152 7.06171 6.56368 6.85999 6.46158C6.85843 6.45998 6.85686 6.45998 6.85374 6.45998C6.84123 6.4536 6.82872 6.45041 6.81464 6.44563C6.80995 6.44403 6.80526 6.44244 6.80057 6.44084C6.78337 6.43765 6.7646 6.43446 6.74584 6.43446C6.72708 6.43446 6.70831 6.43765 6.69111 6.44084C6.68642 6.44244 6.68173 6.44403 6.6786 6.44563C6.66453 6.44882 6.65202 6.4536 6.63951 6.45998C6.63794 6.46158 6.63638 6.46158 6.63325 6.46158C6.43153 6.56208 2.34244 8.77152 1.9562 21.5863H0.256448C0.114151 21.5863 0 21.7044 0 21.8479C0 24.4785 0.620792 26.9639 1.71852 29.1622C1.7279 29.1957 1.74354 29.2244 1.76386 29.25C4.39871 34.4426 9.71689 38 15.8326 38C19.7059 38 23.257 36.5722 26.0123 34.208C26.042 34.1921 26.067 34.1698 26.0889 34.1426C26.8661 33.4663 27.5791 32.7149 28.2171 31.8997C28.2468 31.8758 28.2719 31.8439 28.2891 31.8088C29.3821 30.389 30.2468 28.7778 30.8285 27.0357C30.8395 27.0134 30.8473 26.9895 30.852 26.9655C31.3789 25.3575 31.6667 23.6378 31.6667 21.8511C31.6635 21.7043 31.5494 21.5863 31.4071 21.5863ZM13.7341 22.1111C13.0804 22.8625 12.3549 23.5357 11.5636 24.1196C11.5683 23.424 11.5636 22.754 11.5496 22.1111H13.7341ZM7.00385 7.20816C8.21104 8.26264 11.8998 12.8442 10.8725 28.8974C10.8693 28.9501 10.8819 29.0011 10.9053 29.0426C9.46513 28.8543 8.15318 28.7506 7.00385 28.6996V7.20816ZM4.29238 10.7162C5.1102 8.63433 6.00151 7.6357 6.48939 7.20976V28.682C4.70676 28.6262 3.3651 28.698 2.61296 28.7602C2.27207 23.306 2.29396 15.8003 4.29238 10.7162ZM0.516024 22.1111H1.94369C1.90147 24.0781 1.94369 26.2876 2.0985 28.7666C1.12118 26.7534 0.555117 24.4961 0.516024 22.1111ZM15.8326 37.4752C10.0328 37.4752 4.97572 34.1682 2.37527 29.3058C4.4081 29.108 14.4174 28.4986 25.4134 34.031C22.7879 36.1846 19.4541 37.4752 15.8326 37.4752ZM25.845 33.6657C20.5299 30.9585 15.4276 29.6759 11.3103 29.0984C11.3525 29.0553 11.3807 28.9979 11.3854 28.9309C11.4808 27.4473 11.5355 26.061 11.5558 24.7641C12.6457 24.0047 13.623 23.0906 14.4706 22.0394C14.4862 22.0234 14.5003 22.0059 14.5128 21.9851C14.5863 21.8942 14.6598 21.8033 14.7317 21.7091C16.4346 19.4662 18.5221 18.1948 20.949 17.9124C19.4353 18.8823 16.7207 21.2672 18.1578 25.2953C18.6191 26.5859 19.4353 27.7696 20.5221 28.7187C21.8309 29.8625 24.4236 31.737 27.5197 31.938C27.0053 32.5569 26.4454 33.1344 25.845 33.6657ZM27.9247 31.4307C24.8161 31.378 22.1687 29.4669 20.8568 28.3215C19.8372 27.4314 19.0726 26.3242 18.641 25.1166C17.9013 23.046 18.2438 21.2066 19.6574 19.6496C20.2219 19.0275 20.8536 18.576 21.3274 18.2857C20.5112 20.0756 20.5675 22.1159 21.5182 23.8978C22.6159 25.9541 24.6409 27.1809 26.9333 27.1809H30.2296C29.6792 28.7251 28.8958 30.1561 27.9247 31.4307ZM30.4063 26.6561H26.9333C24.8317 26.6561 22.9756 25.5314 21.9685 23.6474C21.7043 23.1529 21.5182 22.636 21.4025 22.1111H31.1444C31.1209 23.6936 30.8629 25.2203 30.4063 26.6561ZM10.4284 2.78449C12.3095 1.92145 13.9624 1.79542 15.3431 2.4096C17.3775 3.31412 18.139 5.55547 18.1468 5.5778C18.1828 5.68628 18.2813 5.75647 18.3908 5.75647C18.408 5.75647 18.4252 5.75488 18.4439 5.75009C18.5706 5.72297 18.6582 5.60333 18.6472 5.47092C18.6441 5.42466 18.2156 0.894098 14.4737 0.00713021C14.3361 -0.0263704 14.1969 0.0613693 14.1656 0.203348C14.1328 0.343731 14.2188 0.48571 14.358 0.517616C16.2047 0.954719 17.1601 2.39843 17.648 3.622C17.1648 2.99506 16.4831 2.34579 15.5558 1.93102C14.0359 1.25303 12.2407 1.37906 10.2204 2.30591C10.0906 2.36493 10.0328 2.52127 10.0906 2.65208C10.1469 2.78449 10.2986 2.84351 10.4284 2.78449Z" fill="#000834"/>
</svg>
