<svg xmlns="http://www.w3.org/2000/svg" width="1920" height="615" viewBox="0 0 1920 615" fill="none"><rect width="1920" height="615" fill="#F1F1F1"></rect><mask id="mask0_3087_129" style="mask-type:alpha" maskUnits="userSpaceOnUse" x="0" y="0" width="1920" height="615"><rect width="1920" height="615" fill="#F1F1F1"></rect></mask><g mask="url(#mask0_3087_129)"><path opacity="0.7" d="M2014.3 59.4372C1995.59 46.5553 1978.43 49.4266 1967.26 58.9328C1964.54 40.6188 1955.36 25.6806 1940.61 16.0968C1920.92 3.29255 1892.36 1.39132 1871.2 11.4019C1850.65 21.1021 1844.58 37.3596 1847.23 51.7546C1829.95 44.9257 1812.41 45.3913 1796.69 53.3455C1775.72 63.9769 1759.76 87.6453 1757.9 110.965C1756.07 133.547 1767.16 146.933 1780.97 151.86C1766.42 163.384 1758.05 178.788 1757.08 196.287C1755.83 219.684 1768.4 245.293 1787.7 258.601C1796.57 264.693 1805.09 267.293 1812.79 267.254C1821.35 267.254 1828.86 264.072 1834.74 259.067C1837.46 277.42 1846.65 292.358 1861.39 301.942C1872.67 309.275 1886.84 313.039 1900.88 313.039C1911.35 313.039 1921.78 310.943 1930.8 306.675C1951.35 296.975 1957.42 280.679 1954.77 266.284C1962.79 269.465 1970.88 271.056 1978.82 271.056C1987.96 271.056 1996.91 268.922 2005.31 264.693C2026.25 254.062 2042.2 230.393 2044.11 207.074C2045.93 184.492 2034.85 171.106 2021.03 166.178C2035.58 154.654 2043.95 139.25 2044.92 121.751C2046.17 98.3155 2033.6 72.707 2014.3 59.4372ZM1900.92 206.375C1886.84 194.58 1873.18 185.035 1859.84 182.629C1863.03 164.548 1864.5 147.98 1859.91 135.254C1877.19 128.968 1892.32 121.984 1901.08 111.663C1915.16 123.458 1928.82 133.042 1942.17 135.409C1938.97 153.49 1937.5 170.058 1942.09 182.746C1924.77 189.032 1909.68 196.054 1900.92 206.375ZM1877.85 25.409C1891.82 18.8128 1914.93 17.9592 1932.13 29.095C1945.98 38.0968 1953.06 53.1515 1952.55 72.5906C1952.2 85.4336 1949.05 100.993 1945.98 116.009C1945.71 117.405 1945.39 118.802 1945.12 120.16C1931.39 117.832 1913.68 102.234 1896.45 87.0633C1894.27 85.162 1892.09 83.222 1889.91 81.3208C1891.31 80.894 1892.75 80.4284 1894.15 79.7687C1912.36 71.5042 1912.79 50.2414 1912.79 49.349C1912.83 45.0809 1909.4 41.6277 1905.16 41.5501C1900.73 41.5889 1897.34 44.8869 1897.23 49.155C1897.23 49.2714 1896.84 61.5324 1887.69 65.6841C1878.43 69.8746 1868.28 63.0068 1864.15 54.1991C1862.17 49.8922 1857.27 35.1479 1877.85 25.409ZM1773.38 112.206C1774.63 96.8411 1785.44 76.4319 1803.73 67.1973C1818.48 59.7088 1835.05 61.1444 1851.7 71.3102C1862.68 78.0227 1874.62 88.5377 1886.14 98.7035C1887.19 99.6347 1888.28 100.566 1889.33 101.497C1880.46 112.167 1858.05 119.695 1836.26 126.95C1833.53 127.882 1830.77 128.774 1828.01 129.744C1828.36 128.308 1828.63 126.834 1828.79 125.321C1830.73 105.455 1812.44 94.4742 1811.67 94.0086C1807.97 91.8358 1803.18 93.0386 1801.01 96.7247C1798.83 100.411 1800.03 105.183 1803.73 107.356C1803.85 107.434 1814.23 113.836 1813.26 123.808C1812.29 133.935 1801.28 139.25 1791.55 138.397C1786.84 137.97 1771.55 134.866 1773.38 112.206ZM1828.4 243.236C1825.67 247.116 1815.32 258.756 1796.57 245.836C1783.85 237.067 1771.55 217.55 1772.64 197.141C1773.54 180.651 1783.07 167.032 1800.19 157.758C1811.51 151.628 1826.61 146.584 1841.2 141.733C1842.56 141.268 1843.88 140.841 1845.24 140.375C1850.07 153.374 1845.4 176.499 1840.81 198.965C1840.23 201.797 1839.64 204.629 1839.1 207.462C1838.05 206.453 1836.92 205.483 1835.63 204.552C1819.37 192.95 1800.66 203.233 1799.88 203.659C1796.14 205.755 1794.86 210.45 1796.92 214.174C1798.98 217.899 1803.73 219.257 1807.46 217.201C1807.58 217.123 1818.4 211.342 1826.57 217.162C1834.89 223.06 1834 235.282 1828.4 243.236ZM1924.15 292.629C1910.18 299.226 1887.07 300.079 1869.87 288.943C1856.02 279.942 1848.94 264.887 1849.45 245.448C1849.8 232.605 1852.95 217.046 1856.02 202.03C1856.29 200.633 1856.57 199.275 1856.88 197.878C1870.61 200.206 1888.32 215.804 1905.51 230.975C1907.69 232.876 1909.87 234.816 1912.05 236.718C1910.65 237.144 1909.21 237.61 1907.81 238.27C1889.6 246.534 1889.17 267.797 1889.17 268.689C1889.13 272.957 1892.6 276.488 1896.88 276.527C1901.19 276.488 1904.7 273.113 1904.74 268.845C1904.74 268.728 1905.12 256.545 1914.27 252.393C1923.53 248.203 1933.68 255.07 1937.81 263.878C1939.83 268.107 1944.77 282.89 1924.15 292.629ZM2028.62 205.793C2027.37 221.159 2016.56 241.568 1998.27 250.802C1983.52 258.291 1966.95 256.855 1950.3 246.689C1939.32 239.977 1927.38 229.462 1915.86 219.296C1914.81 218.365 1913.72 217.434 1912.67 216.502C1921.54 205.832 1943.96 198.305 1965.74 191.049C1968.47 190.118 1971.23 189.226 1973.99 188.294C1973.64 189.73 1973.37 191.166 1973.21 192.718C1971.31 212.584 1989.56 223.564 1990.33 224.03C1994.03 226.203 1998.82 225 2000.99 221.314C2003.17 217.628 2001.97 212.855 1998.27 210.682C1998.15 210.605 1987.77 204.203 1988.74 194.231C1989.71 184.104 2000.76 178.788 2010.49 179.642C2015.16 180.03 2030.45 183.173 2028.62 205.793ZM2029.4 120.897C2028.5 137.388 2018.97 151.007 2001.85 160.28C1990.53 166.411 1975.43 171.455 1960.84 176.305C1959.48 176.771 1958.16 177.197 1956.79 177.663C1951.97 164.665 1956.64 141.539 1961.23 119.074C1961.81 116.241 1962.4 113.409 1962.94 110.577C1963.99 111.585 1965.12 112.555 1966.41 113.487C1982.67 125.088 2001.34 114.806 2002.12 114.379C2005.86 112.284 2007.14 107.589 2005.08 103.864C2003.02 100.139 1998.27 98.7811 1994.54 100.838C1994.42 100.915 1983.56 106.658 1975.43 100.876C1967.14 94.9786 1968.04 82.7564 1973.64 74.8023C1976.37 70.9222 1986.72 59.282 2005.47 72.2026C2018.15 80.9716 2030.49 100.488 2029.4 120.897Z" fill="#EBEBEB"></path></g></svg>